<?xml version="1.0" standalone="no"?>
<!DOCTYPE svg PUBLIC "-//W3C//DTD SVG 20010904//EN"
 "http://www.w3.org/TR/2001/REC-SVG-20010904/DTD/svg10.dtd">
<svg version="1.0" xmlns="http://www.w3.org/2000/svg"
 width="934.000000pt" height="964.000000pt" viewBox="0 0 934.000000 964.000000"
 preserveAspectRatio="xMidYMid meet">

<g transform="translate(0.000000,964.000000) scale(0.100000,-0.100000)"
fill="#000000" stroke="none">
<path d="M1334 5344 c-174 -181 -183 -191 -140 -154 71 61 281 277 300 309 18
29 -13 -2 -160 -155z"/>
<path d="M1421 5368 c-14 -23 -14 -23 8 -4 22 20 25 26 13 26 -4 0 -13 -10
-21 -22z"/>
<path d="M1886 5239 c-21 -22 -36 -42 -34 -44 2 -3 24 16 48 40 24 25 40 45
35 44 -6 0 -27 -18 -49 -40z"/>
<path d="M1763 5116 c-62 -68 -62 -77 1 -16 31 30 56 56 56 57 0 12 -23 -4
-57 -41z"/>
<path d="M967 4971 c-53 -55 -99 -111 -103 -127 -11 -43 19 -84 148 -210 122
-117 148 -131 188 -103 11 8 5 9 -24 5 -38 -5 -41 -4 -153 107 -117 115 -155
169 -143 203 4 11 32 45 61 76 86 89 136 148 127 148 -3 0 -48 -45 -101 -99z"/>
<path d="M1671 5024 c-14 -13 -23 -26 -20 -29 3 -3 16 6 29 20 30 32 23 40 -9
9z"/>
<path d="M1035 4990 c-3 -5 -1 -10 4 -10 6 0 11 5 11 10 0 6 -2 10 -4 10 -3 0
-8 -4 -11 -10z"/>
<path d="M1499 4843 c-13 -16 -12 -17 4 -4 9 7 17 15 17 17 0 8 -8 3 -21 -13z"/>
<path d="M1410 4761 c-20 -20 -49 -48 -65 -62 -17 -14 -39 -38 -49 -53 -11
-15 -28 -37 -38 -48 -10 -12 -18 -24 -18 -27 0 -3 50 44 110 104 61 60 110
113 110 117 0 15 -15 5 -50 -31z"/>
<path d="M1250 4720 c0 -5 7 -10 16 -10 8 0 12 5 9 10 -3 6 -10 10 -16 10 -5
0 -9 -4 -9 -10z"/>
<path d="M1300 4705 c0 -9 6 -12 15 -9 8 4 15 7 15 9 0 2 -7 5 -15 9 -9 3 -15
0 -15 -9z"/>
<path d="M1260 4664 c0 -8 5 -12 10 -9 6 3 10 10 10 16 0 5 -4 9 -10 9 -5 0
-10 -7 -10 -16z"/>
<path d="M1500 3742 c-137 -68 -87 -283 66 -285 85 -1 143 47 159 130 8 46
-28 120 -74 150 -41 28 -102 30 -151 5z"/>
<path d="M438 3663 c-9 -2 -26 -19 -38 -38 -20 -33 -20 -42 -18 -619 l3 -586
27 -27 c54 -54 198 -39 227 23 7 16 11 103 11 248 0 177 3 225 13 229 8 3 123
6 256 6 167 1 249 6 262 14 45 28 52 139 10 181 -21 20 -33 21 -279 26 l-257
5 -3 163 -2 162 284 0 c157 0 296 4 310 10 65 24 76 152 17 197 -12 9 -115 12
-411 12 -217 -1 -403 -3 -412 -6z"/>
<path d="M6604 3340 c-112 -17 -200 -64 -271 -144 -53 -60 -77 -110 -103 -210
-46 -181 -2 -381 111 -509 81 -92 250 -149 382 -127 77 12 177 60 212 102 14
17 27 29 29 27 1 -2 8 -23 15 -47 15 -52 51 -72 130 -72 39 0 56 6 80 26 l31
26 0 434 c0 416 -1 435 -19 453 -57 57 -203 38 -217 -29 -12 -53 -13 -53 -60
-11 -77 68 -201 100 -320 81z m201 -224 c118 -50 178 -175 155 -324 -19 -119
-88 -201 -187 -223 -113 -26 -221 29 -274 139 -33 68 -33 196 0 270 27 59 97
127 145 141 48 14 123 12 161 -3z"/>
<path d="M2347 3329 c-57 -13 -108 -43 -152 -88 -21 -23 -43 -41 -47 -41 -4 0
-8 16 -8 36 0 26 -8 43 -29 65 -26 26 -36 29 -94 29 -54 0 -68 -4 -90 -24 -14
-13 -29 -39 -32 -58 -4 -18 -5 -213 -3 -432 l3 -398 33 -29 c29 -26 40 -29 96
-29 54 0 69 4 94 25 l30 25 4 267 c3 256 4 270 27 315 60 125 210 172 305 97
15 -11 37 -40 49 -62 21 -40 22 -57 27 -325 l5 -284 33 -29 c27 -25 41 -29 88
-29 60 0 107 19 124 49 14 27 13 584 -1 653 -27 127 -115 231 -221 263 -56 16
-180 18 -241 4z"/>
<path d="M3285 3327 c-145 -48 -239 -145 -291 -302 -79 -239 9 -516 201 -626
27 -16 83 -36 123 -45 130 -29 275 9 364 94 39 37 40 37 52 -21 10 -41 59 -67
129 -67 52 0 62 4 88 30 l30 29 -3 429 c-3 484 1 461 -81 483 -75 20 -167 -26
-167 -82 0 -25 -5 -24 -48 11 -72 57 -126 74 -247 77 -71 2 -124 -2 -150 -10z
m291 -221 c101 -47 151 -148 141 -282 -6 -85 -32 -147 -78 -191 -103 -98 -273
-86 -356 25 -43 57 -56 110 -51 213 3 70 9 94 31 131 69 118 194 159 313 104z"/>
<path d="M4256 3329 c-25 -4 -49 -17 -63 -33 l-23 -27 0 -420 c0 -269 4 -427
10 -440 16 -29 64 -49 120 -49 56 0 104 20 120 49 6 12 10 115 10 263 0 142 5
260 11 283 24 90 98 157 189 170 76 11 140 -28 182 -109 18 -35 20 -60 21
-310 2 -305 4 -314 73 -336 53 -18 129 -8 159 20 l25 23 0 318 c0 378 -6 410
-90 502 -75 82 -127 102 -270 102 -135 0 -179 -15 -258 -89 l-49 -46 -6 41
c-3 23 -14 50 -24 60 -24 24 -88 37 -137 28z"/>
<path d="M5598 3324 c-217 -52 -358 -240 -358 -477 0 -101 14 -167 52 -246 58
-117 153 -194 293 -237 33 -10 62 -19 63 -20 2 -2 -5 -28 -17 -59 -37 -100
-29 -115 60 -115 81 0 117 -56 63 -99 -32 -26 -57 -26 -141 -4 l-65 18 -24
-28 c-13 -16 -24 -35 -24 -43 0 -26 46 -62 101 -78 137 -41 276 1 326 97 23
46 22 130 -3 164 -31 42 -67 64 -112 70 -46 6 -53 22 -27 59 10 16 29 23 72
27 82 9 198 69 241 125 35 48 40 78 17 121 -15 29 -68 61 -102 61 -11 0 -47
-18 -80 -40 -208 -140 -437 -19 -437 230 1 88 31 157 96 215 55 49 97 65 176
65 54 0 96 -16 168 -65 55 -37 107 -34 150 9 82 82 8 193 -165 246 -76 24
-235 26 -323 4z"/>
<path d="M7613 3320 c-80 -26 -140 -73 -180 -139 -53 -88 -55 -183 -8 -267 42
-73 131 -120 311 -164 62 -15 128 -36 146 -47 29 -17 33 -24 33 -63 0 -39 -4
-47 -34 -67 -28 -19 -47 -23 -106 -23 -85 0 -134 15 -207 64 -70 48 -126 50
-169 7 -22 -23 -29 -39 -29 -70 0 -56 45 -105 135 -147 98 -44 164 -58 280
-57 169 2 299 58 359 156 42 68 49 179 16 255 -24 56 -67 100 -130 132 -42 22
-180 62 -272 80 -70 14 -108 46 -108 92 0 43 8 54 53 73 66 27 170 12 236 -35
94 -66 201 -29 201 70 0 33 -7 44 -46 79 -74 65 -136 84 -289 88 -110 2 -140
0 -192 -17z"/>
<path d="M1495 3316 c-54 -23 -55 -31 -55 -479 0 -459 -2 -447 68 -467 69 -19
118 -13 154 19 l33 29 3 404 c3 441 1 468 -48 493 -35 18 -114 19 -155 1z"/>
<path d="M1250 2039 c-188 -27 -329 -147 -367 -312 -27 -116 7 -227 96 -310
48 -45 187 -122 266 -147 65 -21 150 -67 182 -99 42 -42 57 -82 49 -136 -19
-123 -180 -188 -345 -140 -55 17 -119 72 -156 135 -23 39 -60 52 -110 39 -51
-14 -75 -51 -75 -114 0 -110 116 -213 290 -256 77 -19 250 -16 330 5 190 51
303 175 317 351 14 171 -83 298 -294 385 -129 53 -206 90 -241 117 -100 76
-96 191 9 260 33 22 56 28 110 31 38 3 85 1 104 -2 46 -9 100 -57 124 -112 22
-49 46 -60 113 -51 50 7 77 32 85 80 10 64 -5 106 -58 162 -61 64 -136 100
-242 114 -87 12 -107 12 -187 0z"/>
<path d="M2022 2030 c-43 -26 -66 -80 -57 -135 9 -65 62 -105 137 -105 48 0
100 27 119 61 15 29 16 108 0 137 -32 59 -135 81 -199 42z"/>
<path d="M5280 1749 c-40 -16 -80 -60 -91 -102 -16 -60 -3 -110 43 -162 l40
-46 -12 -62 c-42 -214 -161 -405 -293 -470 -142 -69 -320 -48 -388 46 -37 51
-37 75 -1 83 97 21 217 59 280 90 159 78 235 254 167 390 -39 79 -110 119
-233 130 -123 12 -252 -37 -342 -128 -87 -89 -134 -202 -155 -378 -12 -98
-166 -234 -293 -261 -90 -18 -186 -7 -234 27 -104 73 -125 261 -49 427 45 98
125 156 196 143 42 -8 64 -34 73 -86 14 -81 95 -103 168 -45 27 21 29 28 29
87 0 87 -33 136 -119 178 -111 54 -253 49 -371 -13 -145 -77 -237 -238 -260
-456 -8 -66 -36 -127 -96 -202 -52 -66 -123 -77 -148 -24 -13 27 -12 52 13
235 14 113 26 226 26 252 0 61 -33 147 -68 180 -92 86 -247 88 -368 5 -42 -29
-65 -57 -121 -143 -10 -15 -11 -2 -6 71 7 113 1 120 -99 120 -85 0 -102 -15
-112 -102 -4 -32 -15 -131 -26 -221 l-19 -162 -52 -86 c-66 -109 -104 -153
-153 -175 -41 -18 -59 -16 -88 9 -25 21 -23 86 8 327 39 304 42 338 33 362
-23 62 -175 66 -208 5 -6 -11 -15 -62 -21 -113 -10 -93 -29 -242 -51 -411 -17
-123 -8 -213 25 -274 39 -71 83 -98 170 -102 101 -5 169 22 248 99 l60 59 -7
-48 c-5 -39 -3 -53 13 -72 17 -20 30 -25 88 -28 101 -6 108 4 134 193 28 199
52 291 106 403 34 71 54 99 85 122 101 73 199 34 199 -80 0 -17 -12 -103 -26
-192 -42 -263 -27 -369 59 -426 36 -24 50 -27 126 -27 65 0 96 5 126 20 41 20
149 121 176 164 l15 24 27 -46 c39 -65 98 -112 185 -143 65 -24 90 -28 177
-27 172 1 300 56 409 174 l55 59 20 -38 c116 -228 508 -266 764 -73 127 95
214 268 303 599 5 17 173 6 192 -13 11 -10 6 -32 -28 -120 -75 -197 -93 -310
-67 -412 19 -72 53 -118 111 -149 41 -22 61 -27 120 -26 42 0 87 8 111 17 62
26 132 82 167 133 l32 46 17 -42 c46 -108 169 -174 284 -153 91 17 182 76 232
152 29 43 43 49 43 18 0 -11 10 -43 21 -70 29 -67 82 -99 165 -99 154 1 273
100 403 335 58 104 126 264 136 318 9 46 19 47 36 5 7 -18 41 -85 76 -148 95
-174 104 -254 32 -314 -50 -43 -132 -43 -243 0 -24 9 -66 -40 -66 -78 0 -46
24 -76 79 -100 123 -53 313 -22 421 69 52 43 90 134 90 215 0 85 -18 134 -120
318 -77 139 -110 222 -127 320 -7 39 -12 45 -38 50 -17 4 -61 3 -99 -1 -94 -9
-106 -24 -151 -179 -95 -331 -228 -582 -325 -611 -35 -11 -42 -10 -59 5 -11
10 -22 34 -26 54 -5 34 26 292 61 491 21 125 19 156 -12 180 -20 15 -41 21
-81 21 -47 0 -59 -4 -84 -30 l-30 -29 -35 24 c-64 43 -169 56 -262 31 -182
-49 -312 -219 -357 -468 -23 -129 -93 -245 -170 -279 -55 -26 -72 -24 -107 12
-30 30 -31 31 -25 109 4 59 18 117 56 227 56 162 61 206 31 271 -29 64 -78 82
-244 91 l-131 6 -3 35 c-5 63 -12 78 -46 99 -36 22 -76 26 -116 10z m-473
-288 c45 -28 52 -69 21 -129 -36 -71 -130 -125 -272 -157 l-29 -6 7 53 c9 64
47 152 84 192 31 33 96 65 132 66 14 0 39 -9 57 -19z m1808 -20 c28 -9 50 -22
50 -27 0 -24 -39 -217 -57 -279 -47 -165 -122 -255 -213 -255 -54 0 -90 24
-115 76 -20 41 -22 56 -17 147 8 160 58 273 146 329 54 34 128 37 206 9z"/>
</g>
</svg>
